<svg id="Group_137" data-name="Group 137" xmlns="http://www.w3.org/2000/svg" width="18.566" height="20" viewBox="0 0 18.566 20">
  <g id="Group_136" data-name="Group 136">
    <path id="Path_92" data-name="Path 92" d="M617.1,907.1H599.329a.4.4,0,0,0-.4.4v19.2a.4.4,0,0,0,.4.4H617.1a.4.4,0,0,0,.4-.4v-19.2A.4.4,0,0,0,617.1,907.1Zm-.4,19.2H599.728V907.893H616.7Z" transform="translate(-598.931 -907.096)" fill="#fff"/>
    <path id="Path_93" data-name="Path 93" d="M603.692,913.77a2.092,2.092,0,1,0-2.092-2.092A2.1,2.1,0,0,0,603.692,913.77Zm0-3.387a1.3,1.3,0,1,1-1.3,1.295A1.3,1.3,0,0,1,603.692,910.383Z" transform="translate(-598.931 -907.096)" fill="#fff"/>
    <path id="Path_94" data-name="Path 94" d="M607.218,912.076h7.211a.4.4,0,1,0,0-.8h-7.211a.4.4,0,1,0,0,.8Z" transform="translate(-598.931 -907.096)" fill="#fff"/>
    <path id="Path_95" data-name="Path 95" d="M614.429,916.738h-1.474a.4.4,0,1,0,0,.8h1.474a.4.4,0,0,0,0-.8Z" transform="translate(-598.931 -907.096)" fill="#fff"/>
    <path id="Path_96" data-name="Path 96" d="M603.692,919.228a2.1,2.1,0,0,0,2.053-1.693h5.7a.4.4,0,0,0,0-.8h-5.7a2.092,2.092,0,1,0-2.053,2.49Zm0-3.387a1.3,1.3,0,1,1-1.3,1.295A1.3,1.3,0,0,1,603.692,915.841Z" transform="translate(-598.931 -907.096)" fill="#fff"/>
    <path id="Path_97" data-name="Path 97" d="M603.692,924.606a2.1,2.1,0,0,0,2.053-1.693h8.684a.4.4,0,0,0,0-.8h-8.684a2.092,2.092,0,1,0-2.053,2.49Zm0-3.386a1.295,1.295,0,1,1-1.3,1.3A1.3,1.3,0,0,1,603.692,921.22Z" transform="translate(-598.931 -907.096)" fill="#fff"/>
  </g>
</svg>