<svg id="Group_126" data-name="Group 126" xmlns="http://www.w3.org/2000/svg" width="20" height="20.001" viewBox="0 0 20 20.001">
  <g id="Group_117" data-name="Group 117">
    <g id="Group_116" data-name="Group 116">
      <g id="Group_115" data-name="Group 115">
        <path id="Path_83" data-name="Path 83" d="M1035.515,925.516h0l-.826-2.67a.392.392,0,0,0-.1-.161l-4.274-4.274h0l5.839-5.838a.392.392,0,0,0,0-.553l-3.494-3.494a.39.39,0,0,0-.553,0l-1.462,1.462-.815-.815a.391.391,0,0,0-.552,0l-.014.015-.018.017-.96.96.346-.345-2.8,2.8a.391.391,0,0,0,.277.667.386.386,0,0,0,.276-.115l1.9-1.9.538.538-2.591,2.591-4.154-4.229-1.647-1.647a.39.39,0,0,0-.553,0l-3.494,3.494a.39.39,0,0,0,0,.553l1.647,1.647h0l1.27,1.271h0l2.921,2.92-4.274,4.274a.391.391,0,0,0-.114.276v3.333l-1.451,1.451a.39.39,0,1,0,.552.552l1.451-1.451h3.333a.391.391,0,0,0,.276-.114l4.273-4.274,4.274,4.274a.391.391,0,0,0,.161.1l2.671.826h0l2.387.739a.386.386,0,0,0,.116.018.392.392,0,0,0,.373-.507Zm-3.129-16.163,2.942,2.941-1.185,1.186-2.942-2.942Zm-2.829.647,4.033,4.033-.718.718-4.033-4.033Zm-.179,2.361,2.941,2.942-2.553,2.554-2.942-2.942Zm-12.164-.067,2.942-2.941,1.095,1.095-2.942,2.941Zm1.648,1.648L1021.8,911l.718.718-2.942,2.942Zm2.7,12.121h-2.942v-2.942l4.159-4.159.414.414-.868.869a.39.39,0,0,0,.552.552l.869-.868,1.975,1.975Zm11.7.736-2.232-.69-10.9-10.9,2.942-2.941h0l10.9,10.9.69,2.232a2.909,2.909,0,0,0-.529.319l-2.432-2.432a.39.39,0,0,0-.552.552l2.432,2.432A2.906,2.906,0,0,0,1033.261,926.8Zm.755.234a2.1,2.1,0,0,1,.879-.879l.394,1.273Z" transform="translate(-1016.271 -908.409)" fill="#fff"/>
        <path id="Path_84" data-name="Path 84" d="M1028.176,910.277l.108-.109Z" transform="translate(-1016.271 -908.409)" fill="#fff"/>
      </g>
    </g>
  </g>
  <g id="Group_119" data-name="Group 119" transform="translate(11.794 1.949)">
    <g id="Group_118" data-name="Group 118">
      <path id="Path_85" data-name="Path 85" d="M1028.065,910.387l.029-.029Z" transform="translate(-1028.065 -910.358)" fill="#fff"/>
    </g>
  </g>
  <g id="Group_121" data-name="Group 121" transform="translate(11.739 2.019)">
    <g id="Group_120" data-name="Group 120">
      <path id="Path_86" data-name="Path 86" d="M1028.01,910.442l.015-.014Z" transform="translate(-1028.01 -910.428)" fill="#fff"/>
    </g>
  </g>
  <g id="Group_123" data-name="Group 123" transform="translate(5.121 12.525)">
    <g id="Group_122" data-name="Group 122">
      <path id="Path_87" data-name="Path 87" d="M1022.072,921.048a.392.392,0,0,0-.553,0l-.013.013a.391.391,0,0,0,.277.667.386.386,0,0,0,.276-.115l.013-.013A.389.389,0,0,0,1022.072,921.048Z" transform="translate(-1021.392 -920.934)" fill="#fff"/>
    </g>
  </g>
  <g id="Group_125" data-name="Group 125" transform="translate(13.946 13.946)">
    <g id="Group_124" data-name="Group 124">
      <path id="Path_88" data-name="Path 88" d="M1030.9,922.482l-.013-.013a.391.391,0,0,0-.552.553l.013.013a.392.392,0,0,0,.276.114.391.391,0,0,0,.276-.667Z" transform="translate(-1030.217 -922.355)" fill="#fff"/>
    </g>
  </g>
</svg>